<?xml version="1.0" encoding="UTF-8" standalone="no"?>
<svg>
<metadata>built for 'brailleUTF8web' braille table on Sun Dec 07 11:53:15 CET 2014</metadata>
<defs>
<font horiz-adv-x="609" id="Braille-brailleUTF8web" vert-adv-y="">
<font-face ascent="596" descent="-228" font-family="Braille" font-stretch="normal" font-weight="normal" units-per-em="1024"/>
<missing-glyph/>
<glyph d="M 70 526 m -17, 0 a 17,17 0 1,1 34,0 a 17,17 0 1,1 -34,0 z M 70 298 m -17, 0 a 17,17 0 1,1 34,0 a 17,17 0 1,1 -34,0 z M 70 70 m -17, 0 a 17,17 0 1,1 34,0 a 17,17 0 1,1 -34,0 z M 298 526 m -17, 0 a 17,17 0 1,1 34,0 a 17,17 0 1,1 -34,0 z M 298 298 m -17, 0 a 17,17 0 1,1 34,0 a 17,17 0 1,1 -34,0 z M 298 70 m -17, 0 a 17,17 0 1,1 34,0 a 17,17 0 1,1 -34,0 z " horiz-adv-x="609" unicode=" "/>
<glyph d="M 70 526 m -70, 0 a 70,70 0 1,1 140,0 a 70,70 0 1,1 -140,0 z M 70 298 m -17, 0 a 17,17 0 1,1 34,0 a 17,17 0 1,1 -34,0 z M 70 70 m -17, 0 a 17,17 0 1,1 34,0 a 17,17 0 1,1 -34,0 z M 298 526 m -17, 0 a 17,17 0 1,1 34,0 a 17,17 0 1,1 -34,0 z M 298 298 m -17, 0 a 17,17 0 1,1 34,0 a 17,17 0 1,1 -34,0 z M 298 70 m -17, 0 a 17,17 0 1,1 34,0 a 17,17 0 1,1 -34,0 z " horiz-adv-x="609" unicode="⠁"/>
<glyph d="M 70 526 m -17, 0 a 17,17 0 1,1 34,0 a 17,17 0 1,1 -34,0 z M 70 298 m -70, 0 a 70,70 0 1,1 140,0 a 70,70 0 1,1 -140,0 z M 70 70 m -17, 0 a 17,17 0 1,1 34,0 a 17,17 0 1,1 -34,0 z M 298 526 m -17, 0 a 17,17 0 1,1 34,0 a 17,17 0 1,1 -34,0 z M 298 298 m -17, 0 a 17,17 0 1,1 34,0 a 17,17 0 1,1 -34,0 z M 298 70 m -17, 0 a 17,17 0 1,1 34,0 a 17,17 0 1,1 -34,0 z " horiz-adv-x="609" unicode="⠂"/>
<glyph d="M 70 526 m -70, 0 a 70,70 0 1,1 140,0 a 70,70 0 1,1 -140,0 z M 70 298 m -70, 0 a 70,70 0 1,1 140,0 a 70,70 0 1,1 -140,0 z M 70 70 m -17, 0 a 17,17 0 1,1 34,0 a 17,17 0 1,1 -34,0 z M 298 526 m -17, 0 a 17,17 0 1,1 34,0 a 17,17 0 1,1 -34,0 z M 298 298 m -17, 0 a 17,17 0 1,1 34,0 a 17,17 0 1,1 -34,0 z M 298 70 m -17, 0 a 17,17 0 1,1 34,0 a 17,17 0 1,1 -34,0 z " horiz-adv-x="609" unicode="⠃"/>
<glyph d="M 70 526 m -17, 0 a 17,17 0 1,1 34,0 a 17,17 0 1,1 -34,0 z M 70 298 m -17, 0 a 17,17 0 1,1 34,0 a 17,17 0 1,1 -34,0 z M 70 70 m -70, 0 a 70,70 0 1,1 140,0 a 70,70 0 1,1 -140,0 z M 298 526 m -17, 0 a 17,17 0 1,1 34,0 a 17,17 0 1,1 -34,0 z M 298 298 m -17, 0 a 17,17 0 1,1 34,0 a 17,17 0 1,1 -34,0 z M 298 70 m -17, 0 a 17,17 0 1,1 34,0 a 17,17 0 1,1 -34,0 z " horiz-adv-x="609" unicode="⠄"/>
<glyph d="M 70 526 m -70, 0 a 70,70 0 1,1 140,0 a 70,70 0 1,1 -140,0 z M 70 298 m -17, 0 a 17,17 0 1,1 34,0 a 17,17 0 1,1 -34,0 z M 70 70 m -70, 0 a 70,70 0 1,1 140,0 a 70,70 0 1,1 -140,0 z M 298 526 m -17, 0 a 17,17 0 1,1 34,0 a 17,17 0 1,1 -34,0 z M 298 298 m -17, 0 a 17,17 0 1,1 34,0 a 17,17 0 1,1 -34,0 z M 298 70 m -17, 0 a 17,17 0 1,1 34,0 a 17,17 0 1,1 -34,0 z " horiz-adv-x="609" unicode="⠅"/>
<glyph d="M 70 526 m -17, 0 a 17,17 0 1,1 34,0 a 17,17 0 1,1 -34,0 z M 70 298 m -70, 0 a 70,70 0 1,1 140,0 a 70,70 0 1,1 -140,0 z M 70 70 m -70, 0 a 70,70 0 1,1 140,0 a 70,70 0 1,1 -140,0 z M 298 526 m -17, 0 a 17,17 0 1,1 34,0 a 17,17 0 1,1 -34,0 z M 298 298 m -17, 0 a 17,17 0 1,1 34,0 a 17,17 0 1,1 -34,0 z M 298 70 m -17, 0 a 17,17 0 1,1 34,0 a 17,17 0 1,1 -34,0 z " horiz-adv-x="609" unicode="⠆"/>
<glyph d="M 70 526 m -70, 0 a 70,70 0 1,1 140,0 a 70,70 0 1,1 -140,0 z M 70 298 m -70, 0 a 70,70 0 1,1 140,0 a 70,70 0 1,1 -140,0 z M 70 70 m -70, 0 a 70,70 0 1,1 140,0 a 70,70 0 1,1 -140,0 z M 298 526 m -17, 0 a 17,17 0 1,1 34,0 a 17,17 0 1,1 -34,0 z M 298 298 m -17, 0 a 17,17 0 1,1 34,0 a 17,17 0 1,1 -34,0 z M 298 70 m -17, 0 a 17,17 0 1,1 34,0 a 17,17 0 1,1 -34,0 z " horiz-adv-x="609" unicode="⠇"/>
<glyph d="M 70 526 m -17, 0 a 17,17 0 1,1 34,0 a 17,17 0 1,1 -34,0 z M 70 298 m -17, 0 a 17,17 0 1,1 34,0 a 17,17 0 1,1 -34,0 z M 70 70 m -17, 0 a 17,17 0 1,1 34,0 a 17,17 0 1,1 -34,0 z M 298 526 m -70, 0 a 70,70 0 1,1 140,0 a 70,70 0 1,1 -140,0 z M 298 298 m -17, 0 a 17,17 0 1,1 34,0 a 17,17 0 1,1 -34,0 z M 298 70 m -17, 0 a 17,17 0 1,1 34,0 a 17,17 0 1,1 -34,0 z " horiz-adv-x="609" unicode="⠈"/>
<glyph d="M 70 526 m -70, 0 a 70,70 0 1,1 140,0 a 70,70 0 1,1 -140,0 z M 70 298 m -17, 0 a 17,17 0 1,1 34,0 a 17,17 0 1,1 -34,0 z M 70 70 m -17, 0 a 17,17 0 1,1 34,0 a 17,17 0 1,1 -34,0 z M 298 526 m -70, 0 a 70,70 0 1,1 140,0 a 70,70 0 1,1 -140,0 z M 298 298 m -17, 0 a 17,17 0 1,1 34,0 a 17,17 0 1,1 -34,0 z M 298 70 m -17, 0 a 17,17 0 1,1 34,0 a 17,17 0 1,1 -34,0 z " horiz-adv-x="609" unicode="⠉"/>
<glyph d="M 70 526 m -17, 0 a 17,17 0 1,1 34,0 a 17,17 0 1,1 -34,0 z M 70 298 m -70, 0 a 70,70 0 1,1 140,0 a 70,70 0 1,1 -140,0 z M 70 70 m -17, 0 a 17,17 0 1,1 34,0 a 17,17 0 1,1 -34,0 z M 298 526 m -70, 0 a 70,70 0 1,1 140,0 a 70,70 0 1,1 -140,0 z M 298 298 m -17, 0 a 17,17 0 1,1 34,0 a 17,17 0 1,1 -34,0 z M 298 70 m -17, 0 a 17,17 0 1,1 34,0 a 17,17 0 1,1 -34,0 z " horiz-adv-x="609" unicode="⠊"/>
<glyph d="M 70 526 m -70, 0 a 70,70 0 1,1 140,0 a 70,70 0 1,1 -140,0 z M 70 298 m -70, 0 a 70,70 0 1,1 140,0 a 70,70 0 1,1 -140,0 z M 70 70 m -17, 0 a 17,17 0 1,1 34,0 a 17,17 0 1,1 -34,0 z M 298 526 m -70, 0 a 70,70 0 1,1 140,0 a 70,70 0 1,1 -140,0 z M 298 298 m -17, 0 a 17,17 0 1,1 34,0 a 17,17 0 1,1 -34,0 z M 298 70 m -17, 0 a 17,17 0 1,1 34,0 a 17,17 0 1,1 -34,0 z " horiz-adv-x="609" unicode="⠋"/>
<glyph d="M 70 526 m -17, 0 a 17,17 0 1,1 34,0 a 17,17 0 1,1 -34,0 z M 70 298 m -17, 0 a 17,17 0 1,1 34,0 a 17,17 0 1,1 -34,0 z M 70 70 m -70, 0 a 70,70 0 1,1 140,0 a 70,70 0 1,1 -140,0 z M 298 526 m -70, 0 a 70,70 0 1,1 140,0 a 70,70 0 1,1 -140,0 z M 298 298 m -17, 0 a 17,17 0 1,1 34,0 a 17,17 0 1,1 -34,0 z M 298 70 m -17, 0 a 17,17 0 1,1 34,0 a 17,17 0 1,1 -34,0 z " horiz-adv-x="609" unicode="⠌"/>
<glyph d="M 70 526 m -70, 0 a 70,70 0 1,1 140,0 a 70,70 0 1,1 -140,0 z M 70 298 m -17, 0 a 17,17 0 1,1 34,0 a 17,17 0 1,1 -34,0 z M 70 70 m -70, 0 a 70,70 0 1,1 140,0 a 70,70 0 1,1 -140,0 z M 298 526 m -70, 0 a 70,70 0 1,1 140,0 a 70,70 0 1,1 -140,0 z M 298 298 m -17, 0 a 17,17 0 1,1 34,0 a 17,17 0 1,1 -34,0 z M 298 70 m -17, 0 a 17,17 0 1,1 34,0 a 17,17 0 1,1 -34,0 z " horiz-adv-x="609" unicode="⠍"/>
<glyph d="M 70 526 m -17, 0 a 17,17 0 1,1 34,0 a 17,17 0 1,1 -34,0 z M 70 298 m -70, 0 a 70,70 0 1,1 140,0 a 70,70 0 1,1 -140,0 z M 70 70 m -70, 0 a 70,70 0 1,1 140,0 a 70,70 0 1,1 -140,0 z M 298 526 m -70, 0 a 70,70 0 1,1 140,0 a 70,70 0 1,1 -140,0 z M 298 298 m -17, 0 a 17,17 0 1,1 34,0 a 17,17 0 1,1 -34,0 z M 298 70 m -17, 0 a 17,17 0 1,1 34,0 a 17,17 0 1,1 -34,0 z " horiz-adv-x="609" unicode="⠎"/>
<glyph d="M 70 526 m -70, 0 a 70,70 0 1,1 140,0 a 70,70 0 1,1 -140,0 z M 70 298 m -70, 0 a 70,70 0 1,1 140,0 a 70,70 0 1,1 -140,0 z M 70 70 m -70, 0 a 70,70 0 1,1 140,0 a 70,70 0 1,1 -140,0 z M 298 526 m -70, 0 a 70,70 0 1,1 140,0 a 70,70 0 1,1 -140,0 z M 298 298 m -17, 0 a 17,17 0 1,1 34,0 a 17,17 0 1,1 -34,0 z M 298 70 m -17, 0 a 17,17 0 1,1 34,0 a 17,17 0 1,1 -34,0 z " horiz-adv-x="609" unicode="⠏"/>
<glyph d="M 70 526 m -17, 0 a 17,17 0 1,1 34,0 a 17,17 0 1,1 -34,0 z M 70 298 m -17, 0 a 17,17 0 1,1 34,0 a 17,17 0 1,1 -34,0 z M 70 70 m -17, 0 a 17,17 0 1,1 34,0 a 17,17 0 1,1 -34,0 z M 298 526 m -17, 0 a 17,17 0 1,1 34,0 a 17,17 0 1,1 -34,0 z M 298 298 m -70, 0 a 70,70 0 1,1 140,0 a 70,70 0 1,1 -140,0 z M 298 70 m -17, 0 a 17,17 0 1,1 34,0 a 17,17 0 1,1 -34,0 z " horiz-adv-x="609" unicode="⠐"/>
<glyph d="M 70 526 m -70, 0 a 70,70 0 1,1 140,0 a 70,70 0 1,1 -140,0 z M 70 298 m -17, 0 a 17,17 0 1,1 34,0 a 17,17 0 1,1 -34,0 z M 70 70 m -17, 0 a 17,17 0 1,1 34,0 a 17,17 0 1,1 -34,0 z M 298 526 m -17, 0 a 17,17 0 1,1 34,0 a 17,17 0 1,1 -34,0 z M 298 298 m -70, 0 a 70,70 0 1,1 140,0 a 70,70 0 1,1 -140,0 z M 298 70 m -17, 0 a 17,17 0 1,1 34,0 a 17,17 0 1,1 -34,0 z " horiz-adv-x="609" unicode="⠑"/>
<glyph d="M 70 526 m -17, 0 a 17,17 0 1,1 34,0 a 17,17 0 1,1 -34,0 z M 70 298 m -70, 0 a 70,70 0 1,1 140,0 a 70,70 0 1,1 -140,0 z M 70 70 m -17, 0 a 17,17 0 1,1 34,0 a 17,17 0 1,1 -34,0 z M 298 526 m -17, 0 a 17,17 0 1,1 34,0 a 17,17 0 1,1 -34,0 z M 298 298 m -70, 0 a 70,70 0 1,1 140,0 a 70,70 0 1,1 -140,0 z M 298 70 m -17, 0 a 17,17 0 1,1 34,0 a 17,17 0 1,1 -34,0 z " horiz-adv-x="609" unicode="⠒"/>
<glyph d="M 70 526 m -70, 0 a 70,70 0 1,1 140,0 a 70,70 0 1,1 -140,0 z M 70 298 m -70, 0 a 70,70 0 1,1 140,0 a 70,70 0 1,1 -140,0 z M 70 70 m -17, 0 a 17,17 0 1,1 34,0 a 17,17 0 1,1 -34,0 z M 298 526 m -17, 0 a 17,17 0 1,1 34,0 a 17,17 0 1,1 -34,0 z M 298 298 m -70, 0 a 70,70 0 1,1 140,0 a 70,70 0 1,1 -140,0 z M 298 70 m -17, 0 a 17,17 0 1,1 34,0 a 17,17 0 1,1 -34,0 z " horiz-adv-x="609" unicode="⠓"/>
<glyph d="M 70 526 m -17, 0 a 17,17 0 1,1 34,0 a 17,17 0 1,1 -34,0 z M 70 298 m -17, 0 a 17,17 0 1,1 34,0 a 17,17 0 1,1 -34,0 z M 70 70 m -70, 0 a 70,70 0 1,1 140,0 a 70,70 0 1,1 -140,0 z M 298 526 m -17, 0 a 17,17 0 1,1 34,0 a 17,17 0 1,1 -34,0 z M 298 298 m -70, 0 a 70,70 0 1,1 140,0 a 70,70 0 1,1 -140,0 z M 298 70 m -17, 0 a 17,17 0 1,1 34,0 a 17,17 0 1,1 -34,0 z " horiz-adv-x="609" unicode="⠔"/>
<glyph d="M 70 526 m -70, 0 a 70,70 0 1,1 140,0 a 70,70 0 1,1 -140,0 z M 70 298 m -17, 0 a 17,17 0 1,1 34,0 a 17,17 0 1,1 -34,0 z M 70 70 m -70, 0 a 70,70 0 1,1 140,0 a 70,70 0 1,1 -140,0 z M 298 526 m -17, 0 a 17,17 0 1,1 34,0 a 17,17 0 1,1 -34,0 z M 298 298 m -70, 0 a 70,70 0 1,1 140,0 a 70,70 0 1,1 -140,0 z M 298 70 m -17, 0 a 17,17 0 1,1 34,0 a 17,17 0 1,1 -34,0 z " horiz-adv-x="609" unicode="⠕"/>
<glyph d="M 70 526 m -17, 0 a 17,17 0 1,1 34,0 a 17,17 0 1,1 -34,0 z M 70 298 m -70, 0 a 70,70 0 1,1 140,0 a 70,70 0 1,1 -140,0 z M 70 70 m -70, 0 a 70,70 0 1,1 140,0 a 70,70 0 1,1 -140,0 z M 298 526 m -17, 0 a 17,17 0 1,1 34,0 a 17,17 0 1,1 -34,0 z M 298 298 m -70, 0 a 70,70 0 1,1 140,0 a 70,70 0 1,1 -140,0 z M 298 70 m -17, 0 a 17,17 0 1,1 34,0 a 17,17 0 1,1 -34,0 z " horiz-adv-x="609" unicode="⠖"/>
<glyph d="M 70 526 m -70, 0 a 70,70 0 1,1 140,0 a 70,70 0 1,1 -140,0 z M 70 298 m -70, 0 a 70,70 0 1,1 140,0 a 70,70 0 1,1 -140,0 z M 70 70 m -70, 0 a 70,70 0 1,1 140,0 a 70,70 0 1,1 -140,0 z M 298 526 m -17, 0 a 17,17 0 1,1 34,0 a 17,17 0 1,1 -34,0 z M 298 298 m -70, 0 a 70,70 0 1,1 140,0 a 70,70 0 1,1 -140,0 z M 298 70 m -17, 0 a 17,17 0 1,1 34,0 a 17,17 0 1,1 -34,0 z " horiz-adv-x="609" unicode="⠗"/>
<glyph d="M 70 526 m -17, 0 a 17,17 0 1,1 34,0 a 17,17 0 1,1 -34,0 z M 70 298 m -17, 0 a 17,17 0 1,1 34,0 a 17,17 0 1,1 -34,0 z M 70 70 m -17, 0 a 17,17 0 1,1 34,0 a 17,17 0 1,1 -34,0 z M 298 526 m -70, 0 a 70,70 0 1,1 140,0 a 70,70 0 1,1 -140,0 z M 298 298 m -70, 0 a 70,70 0 1,1 140,0 a 70,70 0 1,1 -140,0 z M 298 70 m -17, 0 a 17,17 0 1,1 34,0 a 17,17 0 1,1 -34,0 z " horiz-adv-x="609" unicode="⠘"/>
<glyph d="M 70 526 m -70, 0 a 70,70 0 1,1 140,0 a 70,70 0 1,1 -140,0 z M 70 298 m -17, 0 a 17,17 0 1,1 34,0 a 17,17 0 1,1 -34,0 z M 70 70 m -17, 0 a 17,17 0 1,1 34,0 a 17,17 0 1,1 -34,0 z M 298 526 m -70, 0 a 70,70 0 1,1 140,0 a 70,70 0 1,1 -140,0 z M 298 298 m -70, 0 a 70,70 0 1,1 140,0 a 70,70 0 1,1 -140,0 z M 298 70 m -17, 0 a 17,17 0 1,1 34,0 a 17,17 0 1,1 -34,0 z " horiz-adv-x="609" unicode="⠙"/>
<glyph d="M 70 526 m -17, 0 a 17,17 0 1,1 34,0 a 17,17 0 1,1 -34,0 z M 70 298 m -70, 0 a 70,70 0 1,1 140,0 a 70,70 0 1,1 -140,0 z M 70 70 m -17, 0 a 17,17 0 1,1 34,0 a 17,17 0 1,1 -34,0 z M 298 526 m -70, 0 a 70,70 0 1,1 140,0 a 70,70 0 1,1 -140,0 z M 298 298 m -70, 0 a 70,70 0 1,1 140,0 a 70,70 0 1,1 -140,0 z M 298 70 m -17, 0 a 17,17 0 1,1 34,0 a 17,17 0 1,1 -34,0 z " horiz-adv-x="609" unicode="⠚"/>
<glyph d="M 70 526 m -70, 0 a 70,70 0 1,1 140,0 a 70,70 0 1,1 -140,0 z M 70 298 m -70, 0 a 70,70 0 1,1 140,0 a 70,70 0 1,1 -140,0 z M 70 70 m -17, 0 a 17,17 0 1,1 34,0 a 17,17 0 1,1 -34,0 z M 298 526 m -70, 0 a 70,70 0 1,1 140,0 a 70,70 0 1,1 -140,0 z M 298 298 m -70, 0 a 70,70 0 1,1 140,0 a 70,70 0 1,1 -140,0 z M 298 70 m -17, 0 a 17,17 0 1,1 34,0 a 17,17 0 1,1 -34,0 z " horiz-adv-x="609" unicode="⠛"/>
<glyph d="M 70 526 m -17, 0 a 17,17 0 1,1 34,0 a 17,17 0 1,1 -34,0 z M 70 298 m -17, 0 a 17,17 0 1,1 34,0 a 17,17 0 1,1 -34,0 z M 70 70 m -70, 0 a 70,70 0 1,1 140,0 a 70,70 0 1,1 -140,0 z M 298 526 m -70, 0 a 70,70 0 1,1 140,0 a 70,70 0 1,1 -140,0 z M 298 298 m -70, 0 a 70,70 0 1,1 140,0 a 70,70 0 1,1 -140,0 z M 298 70 m -17, 0 a 17,17 0 1,1 34,0 a 17,17 0 1,1 -34,0 z " horiz-adv-x="609" unicode="⠜"/>
<glyph d="M 70 526 m -70, 0 a 70,70 0 1,1 140,0 a 70,70 0 1,1 -140,0 z M 70 298 m -17, 0 a 17,17 0 1,1 34,0 a 17,17 0 1,1 -34,0 z M 70 70 m -70, 0 a 70,70 0 1,1 140,0 a 70,70 0 1,1 -140,0 z M 298 526 m -70, 0 a 70,70 0 1,1 140,0 a 70,70 0 1,1 -140,0 z M 298 298 m -70, 0 a 70,70 0 1,1 140,0 a 70,70 0 1,1 -140,0 z M 298 70 m -17, 0 a 17,17 0 1,1 34,0 a 17,17 0 1,1 -34,0 z " horiz-adv-x="609" unicode="⠝"/>
<glyph d="M 70 526 m -17, 0 a 17,17 0 1,1 34,0 a 17,17 0 1,1 -34,0 z M 70 298 m -70, 0 a 70,70 0 1,1 140,0 a 70,70 0 1,1 -140,0 z M 70 70 m -70, 0 a 70,70 0 1,1 140,0 a 70,70 0 1,1 -140,0 z M 298 526 m -70, 0 a 70,70 0 1,1 140,0 a 70,70 0 1,1 -140,0 z M 298 298 m -70, 0 a 70,70 0 1,1 140,0 a 70,70 0 1,1 -140,0 z M 298 70 m -17, 0 a 17,17 0 1,1 34,0 a 17,17 0 1,1 -34,0 z " horiz-adv-x="609" unicode="⠞"/>
<glyph d="M 70 526 m -70, 0 a 70,70 0 1,1 140,0 a 70,70 0 1,1 -140,0 z M 70 298 m -70, 0 a 70,70 0 1,1 140,0 a 70,70 0 1,1 -140,0 z M 70 70 m -70, 0 a 70,70 0 1,1 140,0 a 70,70 0 1,1 -140,0 z M 298 526 m -70, 0 a 70,70 0 1,1 140,0 a 70,70 0 1,1 -140,0 z M 298 298 m -70, 0 a 70,70 0 1,1 140,0 a 70,70 0 1,1 -140,0 z M 298 70 m -17, 0 a 17,17 0 1,1 34,0 a 17,17 0 1,1 -34,0 z " horiz-adv-x="609" unicode="⠟"/>
<glyph d="M 70 526 m -17, 0 a 17,17 0 1,1 34,0 a 17,17 0 1,1 -34,0 z M 70 298 m -17, 0 a 17,17 0 1,1 34,0 a 17,17 0 1,1 -34,0 z M 70 70 m -17, 0 a 17,17 0 1,1 34,0 a 17,17 0 1,1 -34,0 z M 298 526 m -17, 0 a 17,17 0 1,1 34,0 a 17,17 0 1,1 -34,0 z M 298 298 m -17, 0 a 17,17 0 1,1 34,0 a 17,17 0 1,1 -34,0 z M 298 70 m -70, 0 a 70,70 0 1,1 140,0 a 70,70 0 1,1 -140,0 z " horiz-adv-x="609" unicode="⠠"/>
<glyph d="M 70 526 m -70, 0 a 70,70 0 1,1 140,0 a 70,70 0 1,1 -140,0 z M 70 298 m -17, 0 a 17,17 0 1,1 34,0 a 17,17 0 1,1 -34,0 z M 70 70 m -17, 0 a 17,17 0 1,1 34,0 a 17,17 0 1,1 -34,0 z M 298 526 m -17, 0 a 17,17 0 1,1 34,0 a 17,17 0 1,1 -34,0 z M 298 298 m -17, 0 a 17,17 0 1,1 34,0 a 17,17 0 1,1 -34,0 z M 298 70 m -70, 0 a 70,70 0 1,1 140,0 a 70,70 0 1,1 -140,0 z " horiz-adv-x="609" unicode="⠡"/>
<glyph d="M 70 526 m -17, 0 a 17,17 0 1,1 34,0 a 17,17 0 1,1 -34,0 z M 70 298 m -70, 0 a 70,70 0 1,1 140,0 a 70,70 0 1,1 -140,0 z M 70 70 m -17, 0 a 17,17 0 1,1 34,0 a 17,17 0 1,1 -34,0 z M 298 526 m -17, 0 a 17,17 0 1,1 34,0 a 17,17 0 1,1 -34,0 z M 298 298 m -17, 0 a 17,17 0 1,1 34,0 a 17,17 0 1,1 -34,0 z M 298 70 m -70, 0 a 70,70 0 1,1 140,0 a 70,70 0 1,1 -140,0 z " horiz-adv-x="609" unicode="⠢"/>
<glyph d="M 70 526 m -70, 0 a 70,70 0 1,1 140,0 a 70,70 0 1,1 -140,0 z M 70 298 m -70, 0 a 70,70 0 1,1 140,0 a 70,70 0 1,1 -140,0 z M 70 70 m -17, 0 a 17,17 0 1,1 34,0 a 17,17 0 1,1 -34,0 z M 298 526 m -17, 0 a 17,17 0 1,1 34,0 a 17,17 0 1,1 -34,0 z M 298 298 m -17, 0 a 17,17 0 1,1 34,0 a 17,17 0 1,1 -34,0 z M 298 70 m -70, 0 a 70,70 0 1,1 140,0 a 70,70 0 1,1 -140,0 z " horiz-adv-x="609" unicode="⠣"/>
<glyph d="M 70 526 m -17, 0 a 17,17 0 1,1 34,0 a 17,17 0 1,1 -34,0 z M 70 298 m -17, 0 a 17,17 0 1,1 34,0 a 17,17 0 1,1 -34,0 z M 70 70 m -70, 0 a 70,70 0 1,1 140,0 a 70,70 0 1,1 -140,0 z M 298 526 m -17, 0 a 17,17 0 1,1 34,0 a 17,17 0 1,1 -34,0 z M 298 298 m -17, 0 a 17,17 0 1,1 34,0 a 17,17 0 1,1 -34,0 z M 298 70 m -70, 0 a 70,70 0 1,1 140,0 a 70,70 0 1,1 -140,0 z " horiz-adv-x="609" unicode="⠤"/>
<glyph d="M 70 526 m -70, 0 a 70,70 0 1,1 140,0 a 70,70 0 1,1 -140,0 z M 70 298 m -17, 0 a 17,17 0 1,1 34,0 a 17,17 0 1,1 -34,0 z M 70 70 m -70, 0 a 70,70 0 1,1 140,0 a 70,70 0 1,1 -140,0 z M 298 526 m -17, 0 a 17,17 0 1,1 34,0 a 17,17 0 1,1 -34,0 z M 298 298 m -17, 0 a 17,17 0 1,1 34,0 a 17,17 0 1,1 -34,0 z M 298 70 m -70, 0 a 70,70 0 1,1 140,0 a 70,70 0 1,1 -140,0 z " horiz-adv-x="609" unicode="⠥"/>
<glyph d="M 70 526 m -17, 0 a 17,17 0 1,1 34,0 a 17,17 0 1,1 -34,0 z M 70 298 m -70, 0 a 70,70 0 1,1 140,0 a 70,70 0 1,1 -140,0 z M 70 70 m -70, 0 a 70,70 0 1,1 140,0 a 70,70 0 1,1 -140,0 z M 298 526 m -17, 0 a 17,17 0 1,1 34,0 a 17,17 0 1,1 -34,0 z M 298 298 m -17, 0 a 17,17 0 1,1 34,0 a 17,17 0 1,1 -34,0 z M 298 70 m -70, 0 a 70,70 0 1,1 140,0 a 70,70 0 1,1 -140,0 z " horiz-adv-x="609" unicode="⠦"/>
<glyph d="M 70 526 m -70, 0 a 70,70 0 1,1 140,0 a 70,70 0 1,1 -140,0 z M 70 298 m -70, 0 a 70,70 0 1,1 140,0 a 70,70 0 1,1 -140,0 z M 70 70 m -70, 0 a 70,70 0 1,1 140,0 a 70,70 0 1,1 -140,0 z M 298 526 m -17, 0 a 17,17 0 1,1 34,0 a 17,17 0 1,1 -34,0 z M 298 298 m -17, 0 a 17,17 0 1,1 34,0 a 17,17 0 1,1 -34,0 z M 298 70 m -70, 0 a 70,70 0 1,1 140,0 a 70,70 0 1,1 -140,0 z " horiz-adv-x="609" unicode="⠧"/>
<glyph d="M 70 526 m -17, 0 a 17,17 0 1,1 34,0 a 17,17 0 1,1 -34,0 z M 70 298 m -17, 0 a 17,17 0 1,1 34,0 a 17,17 0 1,1 -34,0 z M 70 70 m -17, 0 a 17,17 0 1,1 34,0 a 17,17 0 1,1 -34,0 z M 298 526 m -70, 0 a 70,70 0 1,1 140,0 a 70,70 0 1,1 -140,0 z M 298 298 m -17, 0 a 17,17 0 1,1 34,0 a 17,17 0 1,1 -34,0 z M 298 70 m -70, 0 a 70,70 0 1,1 140,0 a 70,70 0 1,1 -140,0 z " horiz-adv-x="609" unicode="⠨"/>
<glyph d="M 70 526 m -70, 0 a 70,70 0 1,1 140,0 a 70,70 0 1,1 -140,0 z M 70 298 m -17, 0 a 17,17 0 1,1 34,0 a 17,17 0 1,1 -34,0 z M 70 70 m -17, 0 a 17,17 0 1,1 34,0 a 17,17 0 1,1 -34,0 z M 298 526 m -70, 0 a 70,70 0 1,1 140,0 a 70,70 0 1,1 -140,0 z M 298 298 m -17, 0 a 17,17 0 1,1 34,0 a 17,17 0 1,1 -34,0 z M 298 70 m -70, 0 a 70,70 0 1,1 140,0 a 70,70 0 1,1 -140,0 z " horiz-adv-x="609" unicode="⠩"/>
<glyph d="M 70 526 m -17, 0 a 17,17 0 1,1 34,0 a 17,17 0 1,1 -34,0 z M 70 298 m -70, 0 a 70,70 0 1,1 140,0 a 70,70 0 1,1 -140,0 z M 70 70 m -17, 0 a 17,17 0 1,1 34,0 a 17,17 0 1,1 -34,0 z M 298 526 m -70, 0 a 70,70 0 1,1 140,0 a 70,70 0 1,1 -140,0 z M 298 298 m -17, 0 a 17,17 0 1,1 34,0 a 17,17 0 1,1 -34,0 z M 298 70 m -70, 0 a 70,70 0 1,1 140,0 a 70,70 0 1,1 -140,0 z " horiz-adv-x="609" unicode="⠪"/>
<glyph d="M 70 526 m -70, 0 a 70,70 0 1,1 140,0 a 70,70 0 1,1 -140,0 z M 70 298 m -70, 0 a 70,70 0 1,1 140,0 a 70,70 0 1,1 -140,0 z M 70 70 m -17, 0 a 17,17 0 1,1 34,0 a 17,17 0 1,1 -34,0 z M 298 526 m -70, 0 a 70,70 0 1,1 140,0 a 70,70 0 1,1 -140,0 z M 298 298 m -17, 0 a 17,17 0 1,1 34,0 a 17,17 0 1,1 -34,0 z M 298 70 m -70, 0 a 70,70 0 1,1 140,0 a 70,70 0 1,1 -140,0 z " horiz-adv-x="609" unicode="⠫"/>
<glyph d="M 70 526 m -17, 0 a 17,17 0 1,1 34,0 a 17,17 0 1,1 -34,0 z M 70 298 m -17, 0 a 17,17 0 1,1 34,0 a 17,17 0 1,1 -34,0 z M 70 70 m -70, 0 a 70,70 0 1,1 140,0 a 70,70 0 1,1 -140,0 z M 298 526 m -70, 0 a 70,70 0 1,1 140,0 a 70,70 0 1,1 -140,0 z M 298 298 m -17, 0 a 17,17 0 1,1 34,0 a 17,17 0 1,1 -34,0 z M 298 70 m -70, 0 a 70,70 0 1,1 140,0 a 70,70 0 1,1 -140,0 z " horiz-adv-x="609" unicode="⠬"/>
<glyph d="M 70 526 m -70, 0 a 70,70 0 1,1 140,0 a 70,70 0 1,1 -140,0 z M 70 298 m -17, 0 a 17,17 0 1,1 34,0 a 17,17 0 1,1 -34,0 z M 70 70 m -70, 0 a 70,70 0 1,1 140,0 a 70,70 0 1,1 -140,0 z M 298 526 m -70, 0 a 70,70 0 1,1 140,0 a 70,70 0 1,1 -140,0 z M 298 298 m -17, 0 a 17,17 0 1,1 34,0 a 17,17 0 1,1 -34,0 z M 298 70 m -70, 0 a 70,70 0 1,1 140,0 a 70,70 0 1,1 -140,0 z " horiz-adv-x="609" unicode="⠭"/>
<glyph d="M 70 526 m -17, 0 a 17,17 0 1,1 34,0 a 17,17 0 1,1 -34,0 z M 70 298 m -70, 0 a 70,70 0 1,1 140,0 a 70,70 0 1,1 -140,0 z M 70 70 m -70, 0 a 70,70 0 1,1 140,0 a 70,70 0 1,1 -140,0 z M 298 526 m -70, 0 a 70,70 0 1,1 140,0 a 70,70 0 1,1 -140,0 z M 298 298 m -17, 0 a 17,17 0 1,1 34,0 a 17,17 0 1,1 -34,0 z M 298 70 m -70, 0 a 70,70 0 1,1 140,0 a 70,70 0 1,1 -140,0 z " horiz-adv-x="609" unicode="⠮"/>
<glyph d="M 70 526 m -70, 0 a 70,70 0 1,1 140,0 a 70,70 0 1,1 -140,0 z M 70 298 m -70, 0 a 70,70 0 1,1 140,0 a 70,70 0 1,1 -140,0 z M 70 70 m -70, 0 a 70,70 0 1,1 140,0 a 70,70 0 1,1 -140,0 z M 298 526 m -70, 0 a 70,70 0 1,1 140,0 a 70,70 0 1,1 -140,0 z M 298 298 m -17, 0 a 17,17 0 1,1 34,0 a 17,17 0 1,1 -34,0 z M 298 70 m -70, 0 a 70,70 0 1,1 140,0 a 70,70 0 1,1 -140,0 z " horiz-adv-x="609" unicode="⠯"/>
<glyph d="M 70 526 m -17, 0 a 17,17 0 1,1 34,0 a 17,17 0 1,1 -34,0 z M 70 298 m -17, 0 a 17,17 0 1,1 34,0 a 17,17 0 1,1 -34,0 z M 70 70 m -17, 0 a 17,17 0 1,1 34,0 a 17,17 0 1,1 -34,0 z M 298 526 m -17, 0 a 17,17 0 1,1 34,0 a 17,17 0 1,1 -34,0 z M 298 298 m -70, 0 a 70,70 0 1,1 140,0 a 70,70 0 1,1 -140,0 z M 298 70 m -70, 0 a 70,70 0 1,1 140,0 a 70,70 0 1,1 -140,0 z " horiz-adv-x="609" unicode="⠰"/>
<glyph d="M 70 526 m -70, 0 a 70,70 0 1,1 140,0 a 70,70 0 1,1 -140,0 z M 70 298 m -17, 0 a 17,17 0 1,1 34,0 a 17,17 0 1,1 -34,0 z M 70 70 m -17, 0 a 17,17 0 1,1 34,0 a 17,17 0 1,1 -34,0 z M 298 526 m -17, 0 a 17,17 0 1,1 34,0 a 17,17 0 1,1 -34,0 z M 298 298 m -70, 0 a 70,70 0 1,1 140,0 a 70,70 0 1,1 -140,0 z M 298 70 m -70, 0 a 70,70 0 1,1 140,0 a 70,70 0 1,1 -140,0 z " horiz-adv-x="609" unicode="⠱"/>
<glyph d="M 70 526 m -17, 0 a 17,17 0 1,1 34,0 a 17,17 0 1,1 -34,0 z M 70 298 m -70, 0 a 70,70 0 1,1 140,0 a 70,70 0 1,1 -140,0 z M 70 70 m -17, 0 a 17,17 0 1,1 34,0 a 17,17 0 1,1 -34,0 z M 298 526 m -17, 0 a 17,17 0 1,1 34,0 a 17,17 0 1,1 -34,0 z M 298 298 m -70, 0 a 70,70 0 1,1 140,0 a 70,70 0 1,1 -140,0 z M 298 70 m -70, 0 a 70,70 0 1,1 140,0 a 70,70 0 1,1 -140,0 z " horiz-adv-x="609" unicode="⠲"/>
<glyph d="M 70 526 m -70, 0 a 70,70 0 1,1 140,0 a 70,70 0 1,1 -140,0 z M 70 298 m -70, 0 a 70,70 0 1,1 140,0 a 70,70 0 1,1 -140,0 z M 70 70 m -17, 0 a 17,17 0 1,1 34,0 a 17,17 0 1,1 -34,0 z M 298 526 m -17, 0 a 17,17 0 1,1 34,0 a 17,17 0 1,1 -34,0 z M 298 298 m -70, 0 a 70,70 0 1,1 140,0 a 70,70 0 1,1 -140,0 z M 298 70 m -70, 0 a 70,70 0 1,1 140,0 a 70,70 0 1,1 -140,0 z " horiz-adv-x="609" unicode="⠳"/>
<glyph d="M 70 526 m -17, 0 a 17,17 0 1,1 34,0 a 17,17 0 1,1 -34,0 z M 70 298 m -17, 0 a 17,17 0 1,1 34,0 a 17,17 0 1,1 -34,0 z M 70 70 m -70, 0 a 70,70 0 1,1 140,0 a 70,70 0 1,1 -140,0 z M 298 526 m -17, 0 a 17,17 0 1,1 34,0 a 17,17 0 1,1 -34,0 z M 298 298 m -70, 0 a 70,70 0 1,1 140,0 a 70,70 0 1,1 -140,0 z M 298 70 m -70, 0 a 70,70 0 1,1 140,0 a 70,70 0 1,1 -140,0 z " horiz-adv-x="609" unicode="⠴"/>
<glyph d="M 70 526 m -70, 0 a 70,70 0 1,1 140,0 a 70,70 0 1,1 -140,0 z M 70 298 m -17, 0 a 17,17 0 1,1 34,0 a 17,17 0 1,1 -34,0 z M 70 70 m -70, 0 a 70,70 0 1,1 140,0 a 70,70 0 1,1 -140,0 z M 298 526 m -17, 0 a 17,17 0 1,1 34,0 a 17,17 0 1,1 -34,0 z M 298 298 m -70, 0 a 70,70 0 1,1 140,0 a 70,70 0 1,1 -140,0 z M 298 70 m -70, 0 a 70,70 0 1,1 140,0 a 70,70 0 1,1 -140,0 z " horiz-adv-x="609" unicode="⠵"/>
<glyph d="M 70 526 m -17, 0 a 17,17 0 1,1 34,0 a 17,17 0 1,1 -34,0 z M 70 298 m -70, 0 a 70,70 0 1,1 140,0 a 70,70 0 1,1 -140,0 z M 70 70 m -70, 0 a 70,70 0 1,1 140,0 a 70,70 0 1,1 -140,0 z M 298 526 m -17, 0 a 17,17 0 1,1 34,0 a 17,17 0 1,1 -34,0 z M 298 298 m -70, 0 a 70,70 0 1,1 140,0 a 70,70 0 1,1 -140,0 z M 298 70 m -70, 0 a 70,70 0 1,1 140,0 a 70,70 0 1,1 -140,0 z " horiz-adv-x="609" unicode="⠶"/>
<glyph d="M 70 526 m -70, 0 a 70,70 0 1,1 140,0 a 70,70 0 1,1 -140,0 z M 70 298 m -70, 0 a 70,70 0 1,1 140,0 a 70,70 0 1,1 -140,0 z M 70 70 m -70, 0 a 70,70 0 1,1 140,0 a 70,70 0 1,1 -140,0 z M 298 526 m -17, 0 a 17,17 0 1,1 34,0 a 17,17 0 1,1 -34,0 z M 298 298 m -70, 0 a 70,70 0 1,1 140,0 a 70,70 0 1,1 -140,0 z M 298 70 m -70, 0 a 70,70 0 1,1 140,0 a 70,70 0 1,1 -140,0 z " horiz-adv-x="609" unicode="⠷"/>
<glyph d="M 70 526 m -17, 0 a 17,17 0 1,1 34,0 a 17,17 0 1,1 -34,0 z M 70 298 m -17, 0 a 17,17 0 1,1 34,0 a 17,17 0 1,1 -34,0 z M 70 70 m -17, 0 a 17,17 0 1,1 34,0 a 17,17 0 1,1 -34,0 z M 298 526 m -70, 0 a 70,70 0 1,1 140,0 a 70,70 0 1,1 -140,0 z M 298 298 m -70, 0 a 70,70 0 1,1 140,0 a 70,70 0 1,1 -140,0 z M 298 70 m -70, 0 a 70,70 0 1,1 140,0 a 70,70 0 1,1 -140,0 z " horiz-adv-x="609" unicode="⠸"/>
<glyph d="M 70 526 m -70, 0 a 70,70 0 1,1 140,0 a 70,70 0 1,1 -140,0 z M 70 298 m -17, 0 a 17,17 0 1,1 34,0 a 17,17 0 1,1 -34,0 z M 70 70 m -17, 0 a 17,17 0 1,1 34,0 a 17,17 0 1,1 -34,0 z M 298 526 m -70, 0 a 70,70 0 1,1 140,0 a 70,70 0 1,1 -140,0 z M 298 298 m -70, 0 a 70,70 0 1,1 140,0 a 70,70 0 1,1 -140,0 z M 298 70 m -70, 0 a 70,70 0 1,1 140,0 a 70,70 0 1,1 -140,0 z " horiz-adv-x="609" unicode="⠹"/>
<glyph d="M 70 526 m -17, 0 a 17,17 0 1,1 34,0 a 17,17 0 1,1 -34,0 z M 70 298 m -70, 0 a 70,70 0 1,1 140,0 a 70,70 0 1,1 -140,0 z M 70 70 m -17, 0 a 17,17 0 1,1 34,0 a 17,17 0 1,1 -34,0 z M 298 526 m -70, 0 a 70,70 0 1,1 140,0 a 70,70 0 1,1 -140,0 z M 298 298 m -70, 0 a 70,70 0 1,1 140,0 a 70,70 0 1,1 -140,0 z M 298 70 m -70, 0 a 70,70 0 1,1 140,0 a 70,70 0 1,1 -140,0 z " horiz-adv-x="609" unicode="⠺"/>
<glyph d="M 70 526 m -70, 0 a 70,70 0 1,1 140,0 a 70,70 0 1,1 -140,0 z M 70 298 m -70, 0 a 70,70 0 1,1 140,0 a 70,70 0 1,1 -140,0 z M 70 70 m -17, 0 a 17,17 0 1,1 34,0 a 17,17 0 1,1 -34,0 z M 298 526 m -70, 0 a 70,70 0 1,1 140,0 a 70,70 0 1,1 -140,0 z M 298 298 m -70, 0 a 70,70 0 1,1 140,0 a 70,70 0 1,1 -140,0 z M 298 70 m -70, 0 a 70,70 0 1,1 140,0 a 70,70 0 1,1 -140,0 z " horiz-adv-x="609" unicode="⠻"/>
<glyph d="M 70 526 m -17, 0 a 17,17 0 1,1 34,0 a 17,17 0 1,1 -34,0 z M 70 298 m -17, 0 a 17,17 0 1,1 34,0 a 17,17 0 1,1 -34,0 z M 70 70 m -70, 0 a 70,70 0 1,1 140,0 a 70,70 0 1,1 -140,0 z M 298 526 m -70, 0 a 70,70 0 1,1 140,0 a 70,70 0 1,1 -140,0 z M 298 298 m -70, 0 a 70,70 0 1,1 140,0 a 70,70 0 1,1 -140,0 z M 298 70 m -70, 0 a 70,70 0 1,1 140,0 a 70,70 0 1,1 -140,0 z " horiz-adv-x="609" unicode="⠼"/>
<glyph d="M 70 526 m -70, 0 a 70,70 0 1,1 140,0 a 70,70 0 1,1 -140,0 z M 70 298 m -17, 0 a 17,17 0 1,1 34,0 a 17,17 0 1,1 -34,0 z M 70 70 m -70, 0 a 70,70 0 1,1 140,0 a 70,70 0 1,1 -140,0 z M 298 526 m -70, 0 a 70,70 0 1,1 140,0 a 70,70 0 1,1 -140,0 z M 298 298 m -70, 0 a 70,70 0 1,1 140,0 a 70,70 0 1,1 -140,0 z M 298 70 m -70, 0 a 70,70 0 1,1 140,0 a 70,70 0 1,1 -140,0 z " horiz-adv-x="609" unicode="⠽"/>
<glyph d="M 70 526 m -17, 0 a 17,17 0 1,1 34,0 a 17,17 0 1,1 -34,0 z M 70 298 m -70, 0 a 70,70 0 1,1 140,0 a 70,70 0 1,1 -140,0 z M 70 70 m -70, 0 a 70,70 0 1,1 140,0 a 70,70 0 1,1 -140,0 z M 298 526 m -70, 0 a 70,70 0 1,1 140,0 a 70,70 0 1,1 -140,0 z M 298 298 m -70, 0 a 70,70 0 1,1 140,0 a 70,70 0 1,1 -140,0 z M 298 70 m -70, 0 a 70,70 0 1,1 140,0 a 70,70 0 1,1 -140,0 z " horiz-adv-x="609" unicode="⠾"/>
<glyph d="M 70 526 m -70, 0 a 70,70 0 1,1 140,0 a 70,70 0 1,1 -140,0 z M 70 298 m -70, 0 a 70,70 0 1,1 140,0 a 70,70 0 1,1 -140,0 z M 70 70 m -70, 0 a 70,70 0 1,1 140,0 a 70,70 0 1,1 -140,0 z M 298 526 m -70, 0 a 70,70 0 1,1 140,0 a 70,70 0 1,1 -140,0 z M 298 298 m -70, 0 a 70,70 0 1,1 140,0 a 70,70 0 1,1 -140,0 z M 298 70 m -70, 0 a 70,70 0 1,1 140,0 a 70,70 0 1,1 -140,0 z " horiz-adv-x="609" unicode="⠿"/>
</font>
</defs>
</svg>
